<?xml version="1.0" encoding="iso-8859-1"?>
<!-- Generator: Adobe Illustrator 19.0.0, SVG Export Plug-In . SVG Version: 6.00 Build 0)  -->
<svg version="1.1" id="Layer_1" xmlns="http://www.w3.org/2000/svg" xmlns:xlink="http://www.w3.org/1999/xlink" x="0px" y="0px"
	 viewBox="0 0 512 512" style="enable-background:new 0 0 512 512;" xml:space="preserve">
<circle style="fill:#FED600;" cx="256" cy="256" r="256"/>
<path style="fill:#FFEBB8;" d="M284.802,168.583c-22.654,0-41.02-4.589-41.02-10.254v54.691c0,5.641,18.353,10.254,41.02,10.254
	s41.016-4.613,41.016-10.254v-54.691C325.818,163.989,307.456,168.583,284.802,168.583z"/>
<ellipse style="fill:#FFFFFF;" cx="284.812" cy="158.348" rx="41.021" ry="10.254"/>
<g>
	<path style="fill:#FED600;" d="M243.782,180.382c9.3,5.218,29.11,6.786,41.02,6.786c11.911,0,31.716-1.569,41.021-6.786v-6.675
		c0,2.49-13.954,8.332-41.021,8.332c-27.066,0-41.02-5.841-41.02-8.332V180.382z"/>
	<path style="fill:#FED600;" d="M243.782,200.89c9.3,5.218,29.11,6.786,41.02,6.786c11.911,0,31.716-1.569,41.016-6.786v-6.675
		c0,2.495-13.954,8.332-41.021,8.332c-27.066,0-41.021-5.837-41.021-8.332v6.675H243.782z"/>
</g>
<g>
	<path style="fill:#FFF4D1;" d="M243.782,214.803c0,1.806,7.336,5.343,21.611,7.177l14.308-14.313
		c-11.864-0.396-27.843-2.174-35.919-6.693L243.782,214.803L243.782,214.803z"/>
	<path style="fill:#FFF4D1;" d="M243.782,180.461v13.833c0,2.495,13.936,8.322,40.955,8.332l16.198-16.193
		c-5.855,0.577-11.571,0.81-16.137,0.81C272.891,187.248,253.082,185.679,243.782,180.461z"/>
	<path style="fill:#FFF4D1;" d="M284.802,168.657c-22.654,0-41.02-4.589-41.02-10.254v15.383c0,2.495,13.954,8.332,41.02,8.332
		c8.681,0,16.002-0.605,21.956-1.499l19.06-19.07v-3.146C325.818,164.068,307.456,168.657,284.802,168.657z"/>
</g>
<g>
	<path style="fill:#FFEBB8;" d="M243.782,173.787v6.679c9.3,5.213,29.11,6.782,41.02,6.782c4.561,0,10.282-0.233,16.137-0.81
		l5.818-5.818c-5.953,0.894-13.275,1.499-21.956,1.499C257.736,182.118,243.782,176.282,243.782,173.787z"/>
	<path style="fill:#FFEBB8;" d="M243.782,194.295v6.679c8.071,4.524,24.055,6.302,35.919,6.693l5.036-5.041
		C257.718,202.617,243.782,196.79,243.782,194.295z"/>
	<path style="fill:#FFEBB8;" d="M202.766,127.562c-22.654,0-41.021-4.589-41.021-10.254v92.29c0,5.641,18.353,10.254,41.021,10.254
		s41.021-4.613,41.021-10.254v-92.29C243.782,122.973,225.42,127.562,202.766,127.562z"/>
</g>
<ellipse style="fill:#FFFFFF;" cx="202.766" cy="117.295" rx="41.021" ry="10.254"/>
<g>
	<path style="fill:#FED600;" d="M161.745,139.366c9.3,5.213,29.11,6.782,41.021,6.782c11.911,0,31.716-1.569,41.021-6.782v-6.679
		c0,2.495-13.954,8.332-41.021,8.332s-41.021-5.837-41.021-8.332V139.366z"/>
	<path style="fill:#FED600;" d="M161.745,159.874c9.3,5.218,29.11,6.786,41.021,6.786c11.911,0,31.716-1.569,41.021-6.786V153.2
		c0,2.495-13.954,8.332-41.021,8.332s-41.021-5.837-41.021-8.332V159.874z"/>
	<path style="fill:#FED600;" d="M161.745,180.382c9.3,5.218,29.11,6.786,41.021,6.786c11.911,0,31.716-1.569,41.021-6.786v-6.675
		c0,2.49-13.954,8.332-41.021,8.332s-41.021-5.841-41.021-8.332V180.382z"/>
	<path style="fill:#FED600;" d="M161.745,197.693c9.3,5.213,29.11,6.782,41.021,6.782c11.911,0,31.716-1.569,41.021-6.782v-6.679
		c0,2.495-13.954,8.332-41.021,8.332s-41.021-5.837-41.021-8.332V197.693z"/>
</g>
<g>
	<path style="fill:#FFF4D1;" d="M161.745,190.995c0,1.043,2.462,2.662,7.275,4.203l9.844-9.844
		c-6.707-1.066-12.963-2.658-17.119-4.99V190.995z"/>
	<path style="fill:#FFF4D1;" d="M161.745,173.689c0,1.801,7.336,5.343,21.611,7.173l14.308-14.313
		c-11.864-0.391-27.843-2.169-35.919-6.693L161.745,173.689L161.745,173.689z"/>
	<path style="fill:#FFF4D1;" d="M161.745,139.348v13.838c0,2.49,13.936,8.322,40.955,8.332l16.198-16.193
		c-5.855,0.582-11.571,0.815-16.137,0.815C190.855,146.134,171.045,144.566,161.745,139.348z"/>
	<path style="fill:#FFF4D1;" d="M202.766,127.544c-22.654,0-41.021-4.589-41.021-10.254v15.383c0,2.49,13.954,8.332,41.021,8.332
		c8.681,0,16.002-0.605,21.955-1.503l19.065-19.065v-3.146C243.782,122.954,225.42,127.544,202.766,127.544z"/>
</g>
<path style="fill:#FED600;" d="M161.745,197.958v4.803l3.281-3.286C163.835,199.01,162.718,198.507,161.745,197.958z"/>
<g>
	<path style="fill:#FFEBB8;" d="M161.745,132.673v6.675c9.3,5.218,29.11,6.786,41.021,6.786c4.561,0,10.282-0.233,16.137-0.815
		l5.818-5.818c-5.953,0.898-13.275,1.503-21.955,1.503C175.7,141.005,161.745,135.163,161.745,132.673z"/>
	<path style="fill:#FFEBB8;" d="M161.745,153.181v6.675c8.071,4.529,24.055,6.302,35.919,6.693l5.036-5.036
		C175.681,161.503,161.745,155.671,161.745,153.181z"/>
	<path style="fill:#FFEBB8;" d="M161.745,173.689v6.675c4.157,2.332,10.408,3.928,17.119,4.99l4.492-4.492
		C169.081,179.037,161.745,175.49,161.745,173.689z"/>
</g>
<path style="fill:#F7B90C;" d="M161.745,191.288v6.675c0.973,0.549,2.09,1.052,3.281,1.517l3.994-3.989
	C164.208,193.95,161.745,192.326,161.745,191.288z"/>
<path style="fill:#FFEBB8;" d="M141.238,194.96c33.699,14.643,53.02,14.643,71.782,14.643c18.856,0,36.729,0,71.782,16.663v59.504
	c-33.699-14.643-53.02-14.643-71.782-14.643c-18.865,0-36.729,0-71.782-16.659V194.96 M130.984,178.837v82.036
	c82.036,41.021,82.036,0,164.073,41.021v-82.041C213.02,178.837,213.02,219.853,130.984,178.837L130.984,178.837z"/>
<path style="fill:#FF8000;" d="M284.802,285.77v-59.508c-35.053-16.663-52.927-16.663-71.782-16.663
	c-18.762,0-38.083,0-71.782-14.643v59.508c35.053,16.659,52.918,16.659,71.782,16.659
	C231.782,271.127,251.099,271.127,284.802,285.77z"/>
<path style="fill:#FF9D00;" d="M240.417,211.279c-10.128-1.652-18.665-1.676-27.401-1.676c-18.762,0-38.083,0-71.782-14.643v59.508
	c17.292,8.22,30.39,12.372,41.509,14.48L240.417,211.279z"/>
<g>
	<circle style="fill:#FFEBB8;" cx="213.02" cy="240.365" r="20.508"/>
	<path style="fill:#FFEBB8;" d="M213.02,219.853c-11.329,0-20.508,9.183-20.508,20.508c0,5.548,2.211,10.575,5.79,14.266
		l28.993-28.984C223.59,222.068,218.563,219.853,213.02,219.853z"/>
</g>
<path style="fill:#FFFFFF;" d="M130.984,180.527v80.347c17.636,8.82,31.465,13.829,43.148,16.696l8.62-8.62
	c-11.12-2.109-24.218-6.265-41.509-14.48V194.96c33.699,14.643,53.02,14.643,71.782,14.643c8.737,0,17.273,0.023,27.401,1.676
	l8.746-8.746c-40.28-8.988-55.035,7.564-117.043-23.147L130.984,180.527z"/>
<path style="fill:#FFEBB8;" d="M117.309,218.885c33.699,14.643,53.02,14.643,71.782,14.643c18.856,0,36.729,0,71.782,16.663v59.504
	c-33.699-14.643-53.02-14.643-71.782-14.643c-18.865,0-36.729,0-71.782-16.659V218.885 M107.055,202.766v82.036
	c82.036,41.016,82.036,0,164.073,41.016v-82.036C189.091,202.766,189.091,243.782,107.055,202.766L107.055,202.766z"/>
<path style="fill:#FF8000;" d="M260.873,309.695v-59.504c-35.053-16.663-52.927-16.663-71.782-16.663
	c-18.762,0-38.083,0-71.782-14.643v59.508c35.053,16.659,52.918,16.659,71.782,16.659
	C207.853,295.056,227.174,295.056,260.873,309.695z"/>
<path style="fill:#FF9D00;" d="M216.492,235.208c-10.119-1.657-18.665-1.68-27.401-1.68c-18.762,0-38.083,0-71.782-14.643v59.508
	c17.292,8.22,30.39,12.372,41.509,14.48L216.492,235.208z"/>
<g>
	<circle style="fill:#FFEBB8;" cx="189.091" cy="264.29" r="20.508"/>
	<path style="fill:#FFEBB8;" d="M189.091,243.782c-11.329,0-20.508,9.183-20.508,20.508c0,5.548,2.211,10.575,5.79,14.266
		l28.993-28.984C199.661,245.997,194.634,243.782,189.091,243.782z"/>
</g>
<path style="fill:#FFFFFF;" d="M107.055,204.456v80.347c17.636,8.82,31.465,13.829,43.148,16.696l8.62-8.62
	c-11.12-2.109-24.218-6.265-41.509-14.48v-59.513c33.699,14.643,53.02,14.643,71.782,14.643c8.737,0,17.282,0.023,27.401,1.68
	l8.746-8.751c-40.28-8.988-55.035,7.559-117.043-23.147L107.055,204.456z"/>
<path style="fill:#FFEBB8;" d="M351.418,258.327c0-26.726-21.811-48.873-48.873-48.873c-26.889,0-48.873,21.872-48.873,48.873
	c0,16.579,8.299,31.218,20.945,40.057v13.47h55.855v-13.47C343.119,289.545,351.418,274.907,351.418,258.327z"/>
<path style="fill:#FFF4D1;" d="M253.673,258.327c0,16.575,8.299,31.218,20.945,40.057v13.47h27.927v-102.4
	C275.656,209.455,253.673,231.326,253.673,258.327z"/>
<path style="fill:#4C2720;" d="M404.945,404.945h-204.8l5.12-60.425c0-8.313,5.511-15.616,13.498-17.901l55.855-14.764h55.855
	l55.855,14.764c7.992,2.281,13.498,9.588,13.498,17.901L404.945,404.945z"/>
<polygon style="fill:#FFFFFF;" points="274.618,311.855 330.473,311.855 302.545,404.945 "/>
<polygon style="fill:#FF8000;" points="302.545,311.855 288.582,358.4 302.545,404.945 316.509,358.4 "/>
<path style="fill:#4C2720;" d="M351.255,255.558c-8.965,1.792-18.493,2.769-28.346,2.769c-25.335,0-48.547-6.274-66.309-16.701
	c6.847-18.73,24.846-32.172,45.945-32.172C328.527,209.455,349.873,229.902,351.255,255.558z"/>
<polygon style="fill:#FF9D00;" points="288.582,358.4 302.545,404.945 302.545,311.855 "/>
<path style="fill:#804B1C;" d="M302.545,209.455c-21.099,0-39.098,13.438-45.945,32.172c12.865,7.554,28.616,12.888,45.945,15.272
	V209.455z"/>
<g>
</g>
<g>
</g>
<g>
</g>
<g>
</g>
<g>
</g>
<g>
</g>
<g>
</g>
<g>
</g>
<g>
</g>
<g>
</g>
<g>
</g>
<g>
</g>
<g>
</g>
<g>
</g>
<g>
</g>
</svg>
