<?xml version="1.0" encoding="iso-8859-1"?>
<!-- Generator: Adobe Illustrator 19.0.0, SVG Export Plug-In . SVG Version: 6.00 Build 0)  -->
<svg version="1.1" id="Layer_1" xmlns="http://www.w3.org/2000/svg" xmlns:xlink="http://www.w3.org/1999/xlink" x="0px" y="0px"
	 viewBox="0 0 512 512" style="enable-background:new 0 0 512 512;" xml:space="preserve">
<circle style="fill:#FFDB79;" cx="256" cy="256" r="256"/>
<path style="fill:#353F49;" d="M171.1,465.755c-16.064,0-29.23-13.137-29.23-29.227V75.502c0-16.08,13.163-29.257,29.23-29.257
	h169.766c16.149,0,29.263,13.18,29.263,29.257v361.026c0,16.09-13.117,29.227-29.263,29.227H171.1z"/>
<g>
	<path style="fill:#474F59;" d="M281.316,435.547c0,3.855-3.122,6.976-6.96,6.976h-36.715c-3.809,0-6.97-3.122-6.97-6.976v-2.943
		c0-3.838,3.161-7.006,6.97-7.006h36.712c3.838,0,6.96,3.168,6.96,7.006v2.943H281.316z"/>
	<path style="fill:#474F59;" d="M286.598,78.564c0,1.592-1.249,2.847-2.834,2.847h-55.531c-1.543,0-2.857-1.255-2.857-2.847v-1.189
		c0-1.556,1.315-2.847,2.857-2.847h55.531c1.586,0,2.834,1.295,2.834,2.847V78.564z"/>
</g>
<rect x="158.429" y="109.7" style="fill:#F77B55;" width="195.155" height="292.699"/>
<rect x="277.735" y="197.13" style="fill:#474F59;" width="118.143" height="66.461"/>
<polygon style="fill:#FFFFFF;" points="327.915,220.127 345.673,230.364 327.915,240.594 "/>
<g>
	<rect x="47.566" y="155.945" style="fill:#474F59;" width="75.561" height="75.502"/>
	<rect x="132.459" y="189.44" style="fill:#474F59;" width="35.378" height="8.526"/>
</g>
<g>
	<rect x="245" y="155.945" style="fill:#FFFFFF;" width="7.683" height="7.65"/>
	<path style="fill:#FFFFFF;" d="M193.615,155.949h8.539v7.65h-8.539V155.949z M210.627,155.949h8.549v7.65h-8.549L210.627,155.949
		L210.627,155.949z M227.705,155.949h8.529v7.65h-8.529V155.949z"/>
	<rect x="177.182" y="155.945" style="fill:#FFFFFF;" width="7.621" height="7.65"/>
	<path style="fill:#FFFFFF;" d="M177.182,206.475h7.621V215h-7.621V206.475z M177.182,189.433h7.621v8.526h-7.621V189.433z
		 M177.182,172.389h7.621v8.519h-7.621V172.389z"/>
	<rect x="177.182" y="223.78" style="fill:#FFFFFF;" width="7.621" height="7.67"/>
	<path style="fill:#FFFFFF;" d="M193.625,223.78h8.529v7.67h-8.529V223.78z M210.627,223.78h8.549v7.67h-8.549L210.627,223.78
		L210.627,223.78z M227.705,223.78h8.529v7.67h-8.529V223.78z"/>
	<rect x="245" y="223.78" style="fill:#FFFFFF;" width="7.683" height="7.67"/>
	<path style="fill:#FFFFFF;" d="M244.99,206.475h7.683v8.519h-7.683V206.475z M244.99,189.433h7.683v8.526h-7.683V189.433z
		 M244.99,172.389h7.683v8.519h-7.683V172.389z"/>
</g>
<rect x="469.851" y="306.738" style="fill:#474F59;" width="37.128" height="37.168"/>
<rect x="308.786" y="306.738" style="fill:#FFFFFF;" width="161.059" height="37.168"/>
<rect x="1.318" y="282.129" style="fill:#EE643C;" width="33.515" height="33.554"/>
<rect x="13.88" y="294.714" style="fill:#FFFFFF;" width="8.4" height="8.387"/>
<rect x="34.833" y="282.129" style="fill:#FF916E;" width="80.414" height="33.554"/>
<g>
	<rect x="47.431" y="294.714" style="fill:#FFFFFF;" width="55.213" height="8.387"/>
	<rect x="206.353" y="285.399" style="fill:#FFFFFF;" width="53.38" height="53.38"/>
</g>
<g>
	<path style="fill:#474F59;" d="M232.993,321.78c-8.536,0-15.393,7.611-15.393,16.988h30.879
		C248.479,329.391,241.532,321.78,232.993,321.78z"/>
	<path style="fill:#474F59;" d="M242.302,309.618c0,5.13-4.152,9.272-9.312,9.272c-5.057,0-9.213-4.142-9.213-9.272
		c0-5.103,4.155-9.269,9.213-9.269C238.149,300.352,242.302,304.518,242.302,309.618z"/>
</g>
<rect x="405.537" y="405.669" style="fill:#F77B55;" width="50.358" height="50.341"/>
<g>
	<path style="fill:#FFFFFF;" d="M441.671,422.773c-3.68-4.786-10.947-1.962-10.947,2.897c0-4.859-7.264-7.683-10.944-2.897
		c-3.805,4.952-0.059,13.606,10.944,18.581C441.724,436.379,445.463,427.725,441.671,422.773z"/>
	<rect x="83.01" y="343.602" style="fill:#FFFFFF;" width="96.454" height="96.487"/>
</g>
<path style="fill:#474F59;" d="M160.606,394.091v-4.469l-6.312-1.275c-0.271-1.728-0.714-3.392-1.311-4.988l4.846-4.271
	l-2.233-3.838l-6.124,2.058c-1.116-1.341-2.296-2.567-3.67-3.663l2.065-6.128l-3.835-2.2l-4.301,4.846
	c-1.546-0.621-3.264-1.057-4.968-1.318l-1.268-6.349h-4.469l-1.265,6.349c-1.718,0.261-3.386,0.7-4.975,1.318l-4.255-4.846
	l-3.875,2.2l2.071,6.134c-1.348,1.093-2.573,2.316-3.673,3.663l-6.114-2.065l-2.22,3.838l4.866,4.281
	c-0.644,1.589-1.08,3.254-1.381,4.978l-6.303,1.275l0.003,4.469l6.299,1.272c0.301,1.728,0.743,3.389,1.381,4.985l-4.866,4.274
	l2.22,3.828l6.114-2.061c1.1,1.361,2.329,2.586,3.673,3.663l-2.071,6.124l3.875,2.22l4.248-4.866
	c1.592,0.628,3.257,1.07,4.981,1.341l1.265,6.355h4.469l1.268-6.355c1.704-0.271,3.422-0.714,4.968-1.341l4.307,4.866l3.828-2.22
	l-2.065-6.124c1.374-1.077,2.547-2.302,3.663-3.66l6.127,2.058l2.233-3.828l-4.846-4.264c0.601-1.586,1.041-3.257,1.311-5.004
	L160.606,394.091z M131.277,401.897c-5.566,0-10.075-4.473-10.075-10.045c0-5.563,4.509-10.055,10.075-10.055
	c5.549,0,10.039,4.492,10.039,10.055C141.315,397.421,136.826,401.897,131.277,401.897z"/>
<rect x="393.315" y="131.089" style="fill:#F77B55;" width="58.586" height="6.022"/>
<rect x="271.525" y="131.089" style="fill:#FFFFFF;" width="121.78" height="6.022"/>
<path style="fill:#353F49;" d="M400.995,134.098c0,4.291-3.458,7.769-7.769,7.769c-4.264,0-7.772-3.478-7.772-7.769
	c0-4.291,3.508-7.772,7.772-7.772C397.537,126.325,400.995,129.807,400.995,134.098z"/>
<g>
</g>
<g>
</g>
<g>
</g>
<g>
</g>
<g>
</g>
<g>
</g>
<g>
</g>
<g>
</g>
<g>
</g>
<g>
</g>
<g>
</g>
<g>
</g>
<g>
</g>
<g>
</g>
<g>
</g>
</svg>
