<?xml version="1.0" encoding="iso-8859-1"?>
<!-- Generator: Adobe Illustrator 19.1.0, SVG Export Plug-In . SVG Version: 6.00 Build 0)  -->
<svg version="1.1" id="Capa_1" xmlns="http://www.w3.org/2000/svg" xmlns:xlink="http://www.w3.org/1999/xlink" x="0px" y="0px"
	 viewBox="0 0 63 63" style="enable-background:new 0 0 63 63;" xml:space="preserve">
<g>
	<g id="group-40svg">
		<path id="path-1_33_" d="M7.633,50.111H1.5c-0.828,0-1.5-0.672-1.5-1.501c0-0.829,0.672-1.501,1.5-1.501h6.133
			c0.602,0,0.808-0.104,0.846-0.127C8.476,46.974,8.5,46.895,8.5,46.725V42.84c0-2.146,1.922-4.737,4.309-4.737h5.175
			c0.253,0,0.403-0.022,0.485-0.04c0.014-0.073,0.031-0.2,0.031-0.402v-2.59c0-2.126,2.304-4.974,4.66-4.974h5.176
			c0.754,0,1.164-0.093,1.164-0.141c0-0.015,0-0.037,0-0.064v-2.59c0-2.322,1.8-4.21,4.012-4.21h6.469c0.244,0,0.519,0,0.519-0.969
			v-1.295c0-2.26,2.437-4.741,4.657-4.741h5.176c0.532,0,1.167-0.076,1.167-0.439v-3.127c0-1.854,1.321-4.44,3.473-4.44H61.5
			c0.828,0,1.5,0.672,1.5,1.501c0,0.829-0.672,1.501-1.5,1.501h-6.415c-0.234,0.2-0.585,0.916-0.585,1.438v3.127
			c0,2.091-1.636,3.441-4.167,3.441h-5.176c-0.589,0-1.657,1.121-1.657,1.739v1.295c0,2.412-1.381,3.971-3.519,3.971h-6.469
			c-0.606,0-1.012,0.624-1.012,1.208v2.59c0,1.197-0.541,3.207-4.164,3.207H23.16c-0.496,0-1.66,1.273-1.66,1.972v2.59
			c0,2.221-1.249,3.444-3.516,3.444h-5.175c-0.474,0-1.309,1.003-1.309,1.735v3.885C11.5,47.743,11.123,50.111,7.633,50.111z"/>
		<path id="path-2_33_" style="fill:#8B71B5;" d="M47.575,37.626c-0.073-0.185-0.184-0.292-0.333-0.442l-4.695-4.666
			c-0.473-0.471-1.237-0.455-1.709,0.017l-4.695,4.707c-0.15,0.15-0.261,0.195-0.333,0.38c-0.306,0.775,0.308,1.481,1.14,1.481
			h2.987V53.71c0,0.667,0.833,1.209,1.5,1.209s1.5-0.542,1.5-1.209V39.103h3.497C47.266,39.103,47.881,38.401,47.575,37.626z"/>
	</g>
</g>
<g>
</g>
<g>
</g>
<g>
</g>
<g>
</g>
<g>
</g>
<g>
</g>
<g>
</g>
<g>
</g>
<g>
</g>
<g>
</g>
<g>
</g>
<g>
</g>
<g>
</g>
<g>
</g>
<g>
</g>
</svg>
