<?xml version="1.0" encoding="iso-8859-1"?>
<!-- Generator: Adobe Illustrator 19.0.0, SVG Export Plug-In . SVG Version: 6.00 Build 0)  -->
<svg xmlns="http://www.w3.org/2000/svg" xmlns:xlink="http://www.w3.org/1999/xlink" version="1.1" id="Layer_1" x="0px" y="0px" viewBox="0 0 512 512" style="enable-background:new 0 0 512 512;" xml:space="preserve" width="512px" height="512px">
<g>
	<g>
		<g>
			<path d="M164.387,116.918l15.501,3.725c8.484-35.297,39.782-59.95,76.109-59.95V44.746     C212.274,44.746,174.598,74.422,164.387,116.918z" fill="#000000"/>
			<path d="M371.316,353.894h-45.279l0.008-76.032h66.9c49.129,0,89.093-39.939,89.093-89.024c0-49.132-39.967-89.101-89.093-89.101     c-1.18,0-2.388,0.028-3.628,0.087C372.087,40.709,318.209,0,255.996,0c-62.188,0-116.078,40.707-133.35,99.822     c-1.219-0.054-2.411-0.082-3.584-0.082c-49.129,0-89.101,39.969-89.101,89.101c0,49.085,39.972,89.024,89.101,89.024h66.906     v76.032h-45.286v-47.386H29.961v110.72h110.72v-47.388h61.23V261.921h-82.852c-40.341,0-73.157-32.783-73.157-73.08     c0-40.34,32.819-73.157,73.157-73.157c2.652,0,5.476,0.179,8.637,0.553l7.032,0.832l1.654-6.886     c13.338-55.485,62.528-94.236,119.613-94.236c57.114,0,106.284,38.751,119.578,94.231l1.649,6.876l7.022-0.814     c3.215-0.374,6.067-0.558,8.699-0.558c40.333,0,73.147,32.819,73.147,73.157c0,40.297-32.814,73.08-73.147,73.08h-82.844     l-0.008,107.922h61.225v47.391h110.72v-110.72h-110.72V353.894z M124.735,401.288h-78.83v-78.83h78.83v31.439H85.321v15.946     h39.414V401.288z M466.09,322.458v78.83h-78.83v-31.447h39.416h0.003v-15.946H387.26v-31.437H466.09z" fill="#000000"/>
			<path d="M263.983,261.914h-15.946v139.374h-47.398V512h110.72V401.288h-47.375V261.914z M295.415,417.231v78.822h-78.83v-78.822     h31.452v39.396h15.946v-39.396H295.415z" fill="#000000"/>
			<rect x="216.14" y="208.358" width="15.944" height="15.946" fill="#000000"/>
			<rect x="248.037" y="208.358" width="15.946" height="15.946" fill="#000000"/>
			<rect x="279.909" y="208.358" width="15.946" height="15.946" fill="#000000"/>
		</g>
	</g>
</g>
<g>
</g>
<g>
</g>
<g>
</g>
<g>
</g>
<g>
</g>
<g>
</g>
<g>
</g>
<g>
</g>
<g>
</g>
<g>
</g>
<g>
</g>
<g>
</g>
<g>
</g>
<g>
</g>
<g>
</g>
</svg>
