<?xml version="1.0" encoding="iso-8859-1"?>
<!-- Generator: Adobe Illustrator 19.0.0, SVG Export Plug-In . SVG Version: 6.00 Build 0)  -->
<svg version="1.1" id="Layer_1" xmlns="http://www.w3.org/2000/svg" xmlns:xlink="http://www.w3.org/1999/xlink" x="0px" y="0px"
	 viewBox="0 0 512.005 512.005" style="enable-background:new 0 0 512.005 512.005;" xml:space="preserve">
<rect x="448.051" y="268.187" style="fill:#CCCBCA;" width="63.954" height="63.949"/>
<g>
	<rect x="405.427" y="295.886" style="fill:#242D3C;" width="8.525" height="8.525"/>
	<rect x="422.477" y="295.886" style="fill:#242D3C;" width="8.53" height="8.525"/>
	<rect x="439.526" y="295.886" style="fill:#242D3C;" width="8.525" height="8.525"/>
</g>
<rect y="268.187" style="fill:#CCCBCA;" width="63.949" height="63.949"/>
<g>
	<rect x="63.949" y="295.886" style="fill:#242D3C;" width="8.53" height="8.525"/>
	<rect x="81.004" y="295.886" style="fill:#242D3C;" width="8.527" height="8.525"/>
	<rect x="98.048" y="295.886" style="fill:#242D3C;" width="8.525" height="8.525"/>
</g>
<rect x="224.026" y="93.966" style="fill:#CCCBCA;" width="63.954" height="63.951"/>
<g>
	<rect x="251.725" y="157.917" style="fill:#242D3C;" width="8.525" height="8.53"/>
	<rect x="251.725" y="174.977" style="fill:#242D3C;" width="8.525" height="8.527"/>
	<rect x="251.725" y="192.027" style="fill:#242D3C;" width="8.525" height="8.527"/>
</g>
<rect id="SVGCleanerId_0" x="362.65" y="157.917" style="fill:#242D3C;" width="8.522" height="8.53"/>
<g>
	<rect x="362.65" y="174.977" style="fill:#242D3C;" width="8.522" height="8.527"/>
	<rect x="362.65" y="192.027" style="fill:#242D3C;" width="8.522" height="8.527"/>
	<rect x="396.749" y="157.917" style="fill:#242D3C;" width="8.525" height="8.53"/>
	<rect x="379.699" y="157.917" style="fill:#242D3C;" width="8.527" height="8.53"/>
</g>
<g>
	<rect id="SVGCleanerId_0_1_" x="362.65" y="157.917" style="fill:#242D3C;" width="8.522" height="8.53"/>
</g>
<circle style="fill:#F15424;" cx="436.966" cy="162.177" r="31.974"/>
<rect id="SVGCleanerId_1" x="140.826" y="157.917" style="fill:#242D3C;" width="8.525" height="8.53"/>
<g>
	<rect x="140.826" y="174.977" style="fill:#242D3C;" width="8.525" height="8.527"/>
	<rect x="140.826" y="192.027" style="fill:#242D3C;" width="8.525" height="8.527"/>
	<rect x="106.721" y="157.917" style="fill:#242D3C;" width="8.527" height="8.53"/>
	<rect x="123.776" y="157.917" style="fill:#242D3C;" width="8.527" height="8.53"/>
</g>
<g>
	<rect id="SVGCleanerId_1_1_" x="140.826" y="157.917" style="fill:#242D3C;" width="8.525" height="8.53"/>
</g>
<circle style="fill:#F15424;" cx="75.034" cy="162.177" r="31.974"/>
<path style="fill:#242D3C;" d="M106.58,399.768V210.513c0-2.54,0.988-5.087,2.934-7.03c1.923-1.948,4.488-2.934,7.032-2.934h278.907
	c2.54,0,5.082,0.986,7.053,2.934c1.923,1.943,2.911,4.49,2.911,7.03v189.256H106.58z"/>
<rect x="123.187" y="217.14" style="fill:#FFFFFF;" width="265.6" height="166.008"/>
<path style="fill:#3E4959;" d="M260.165,208.859c0,2.296-1.894,4.145-4.168,4.145c-2.296,0-4.147-1.848-4.147-4.145
	c0-2.299,1.851-4.147,4.147-4.147C258.271,204.714,260.165,206.563,260.165,208.859z"/>
<path style="fill:#FFFFFF;" d="M257.672,208.859c0,0.911-0.742,1.654-1.674,1.654c-0.914,0-1.654-0.742-1.654-1.654
	c0-0.911,0.74-1.654,1.654-1.654C256.932,207.205,257.672,207.948,257.672,208.859z"/>
<rect x="73.388" y="399.771" style="fill:#E6E5E5;" width="365.235" height="6.653"/>
<g>
	<path style="fill:#CCCBCA;" d="M438.612,406.422c0,2.962-1.124,5.934-3.423,8.212c-2.258,2.276-5.212,3.405-8.212,3.405H85
		c-2.982,0-5.937-1.129-8.218-3.405c-2.273-2.278-3.397-5.251-3.397-8.212l0,0H438.612L438.612,406.422z"/>
	<rect x="222.797" y="399.771" style="fill:#CCCBCA;" width="66.401" height="3.325"/>
</g>
<g>
	<polygon style="fill:#242D3C;" points="348.068,351.405 336.596,322.984 365.018,334.45 353.956,340.33 	"/>
	
		<rect x="355.288" y="337.261" transform="matrix(-0.706 0.7082 -0.7082 -0.706 853.5797 333.5598)" style="fill:#242D3C;" width="4.534" height="13.381"/>
	<rect x="325.222" y="230.785" style="fill:#242D3C;" width="25.577" height="4.951"/>
	<rect x="325.222" y="240.692" style="fill:#242D3C;" width="51.159" height="4.936"/>
	<rect x="325.222" y="250.574" style="fill:#242D3C;" width="51.159" height="4.946"/>
	<rect x="325.222" y="260.456" style="fill:#242D3C;" width="51.159" height="4.943"/>
</g>
<path style="fill:#16C6CC;" d="M312.842,287.638c0,31.393-25.441,56.863-56.835,56.863c-31.396,0-56.852-25.469-56.852-56.863
	c0-31.396,25.454-56.845,56.852-56.845C287.404,230.793,312.842,256.244,312.842,287.638z"/>
<polygon style="fill:#242D3C;" points="273.393,267.908 238.605,267.908 236.242,318.493 275.784,318.493 "/>
<g>
	<path style="fill:#F2F2F2;" d="M295.142,328.859C284.954,338.536,271.206,344.5,256,344.5c-15.181,0-28.954-5.965-39.142-15.642
		l0.794-2.506c0.563-1.743,1.459-3.356,2.816-4.787c1.306-1.436,2.867-2.458,4.557-3.149l17.997-7.142
		c0.896-0.358,1.69-0.998,2.278-1.843c0.589-0.899,0.87-1.869,0.87-2.842v-8.755h19.661v8.755c0,0.973,0.282,1.946,0.87,2.842
		c0.614,0.845,1.411,1.485,2.304,1.843l17.971,7.142c1.69,0.694,3.254,1.715,4.582,3.149c1.334,1.434,2.227,3.044,2.793,4.787
		L295.142,328.859z"/>
	<path style="fill:#F2F2F2;" d="M256.015,253.326c-10.765,0-18.414,7.836-18.414,24.44c0,14.044,8.233,25.889,18.414,25.889
		c10.161,0,18.409-11.845,18.409-25.889C274.424,261.162,266.755,253.326,256.015,253.326z"/>
</g>
<g>
	<path style="fill:#242D3C;" d="M272.522,254.222h-16.507h-16.538c0,0-2.342,16.494,0.655,19.866
		c0.125-1.367,1.336-1.751,3.525-1.756c0,0,1.843-2.048,3.174-7.721c0.998,3.855,0.54,7.869,0.54,7.869
		c2.353,0.164,5.235,0.412,8.643,0.433c0.863-0.005,1.692-0.026,2.465-0.046c0,0,1.011-0.599,1.441-2.094
		c0.63,0.801,0.717,1.987,0.717,1.987c7.055-0.381,10.998-1.206,11.22,1.326C274.885,270.716,272.522,254.222,272.522,254.222z"/>
	<path style="fill:#242D3C;" d="M243.011,311.279c0.893-0.363,1.708-1.009,2.289-1.864c0.591-0.888,0.878-1.856,0.878-2.829v-3.735
		h-5.537c-0.712-5.22-1.119-10.365-1.119-15.237c0-14.426,0.996-19.814,4.982-24.691c5.151-6.262,11.512-7.562,11.512-7.562
		s6.344,1.3,11.489,7.562c3.994,4.874,4.964,10.266,4.964,24.691c0,4.872-0.387,10.017-1.121,15.237h-5.512v3.735
		c0,0.975,0.271,1.943,0.863,2.829c0.602,0.855,1.408,1.5,2.309,1.864l10.291,4.093c1.267-1.585,1.917-3.489,1.917-5.407v-7.112
		c0-11.94-0.366-27.515-2.885-38.892c-2.207-9.751-10.545-19.177-22.318-16.622c-11.786-2.557-20.116,6.871-22.339,16.622
		c-2.54,11.377-2.898,26.952-2.898,38.892v7.112c0,1.917,0.653,3.822,1.948,5.407L243.011,311.279z"/>
	<path style="fill:#242D3C;" d="M282.342,338.024c-7.859,4.147-16.819,6.477-26.342,6.477c-9.498,0-18.458-2.33-26.342-6.477
		c0.947-4.25,1.485-8.986,1.485-13.978c0-2.716-0.179-5.325-0.486-7.885h0.051l4.813-1.894l2.074,8.32
		c0.947,3.942,3.226,7.68,6.707,10.396c3.482,2.714,7.347,3.866,11.725,3.866c4.326,0,8.192-1.152,11.676-3.866
		c3.479-2.716,5.76-6.454,6.733-10.396l2.074-8.32l4.813,1.894c-0.307,2.56-0.461,5.171-0.461,7.885
		C280.858,329.038,281.395,333.774,282.342,338.024z"/>
	<rect x="209.812" y="358.145" style="fill:#242D3C;" width="38.502" height="11.369"/>
</g>
<rect x="263.706" y="358.145" style="fill:#F15424;" width="38.477" height="11.369"/>
<g>
	<rect x="135.588" y="290.075" style="fill:#242D3C;" width="51.162" height="4.941"/>
	<rect x="135.588" y="280.193" style="fill:#242D3C;" width="51.162" height="4.943"/>
	<rect x="135.588" y="270.337" style="fill:#242D3C;" width="51.162" height="4.941"/>
	<rect x="135.588" y="299.982" style="fill:#242D3C;" width="51.162" height="4.943"/>
	<rect x="135.588" y="309.864" style="fill:#242D3C;" width="51.162" height="4.946"/>
	<rect x="135.588" y="319.72" style="fill:#242D3C;" width="25.582" height="4.943"/>
</g>
<rect x="135.588" y="230.785" style="fill:#F15424;" width="51.162" height="24.722"/>
<g>
</g>
<g>
</g>
<g>
</g>
<g>
</g>
<g>
</g>
<g>
</g>
<g>
</g>
<g>
</g>
<g>
</g>
<g>
</g>
<g>
</g>
<g>
</g>
<g>
</g>
<g>
</g>
<g>
</g>
</svg>
