<?xml version="1.0" encoding="iso-8859-1"?>
<!-- Generator: Adobe Illustrator 19.0.0, SVG Export Plug-In . SVG Version: 6.00 Build 0)  -->
<svg version="1.1" id="Layer_1" xmlns="http://www.w3.org/2000/svg" xmlns:xlink="http://www.w3.org/1999/xlink" x="0px" y="0px"
	 viewBox="0 0 512 512" style="enable-background:new 0 0 512 512;" xml:space="preserve">
<circle style="fill:#E77970;" cx="256" cy="256" r="256"/>
<path style="fill:#BD453F;" d="M378.056,133.828l-27.756,0.588l-65.676,12.592l-21.592,101.664L143.368,396.224l-21.352,11.5
	L225.412,510.12C235.448,511.312,245.64,512,256,512c137.96,0,250.368-109.136,255.744-245.776L378.056,133.828z"/>
<path style="fill:#FFFFFF;" d="M373.512,331.932c-23.508-36.748-67.328-61.46-117.512-61.46s-94.004,24.72-117.512,61.46
	c31.012,19.96,72.24,32.148,117.508,32.148C301.268,364.084,342.5,351.896,373.512,331.932z"/>
<rect x="222.4" y="230.584" style="fill:#F0BA7A;" width="67.156" height="63.144"/>
<ellipse style="fill:#F7CFA2;" cx="256" cy="182.472" rx="61.944" ry="83.756"/>
<g>
	<path style="fill:#313133;" d="M373.512,331.932c-31.012,19.96-72.244,32.148-117.516,32.148
		c-45.268,0-86.496-12.188-117.508-32.148c-11.612,18.164-18.272,39.264-18.272,61.78c0,3.824,0.204,7.6,0.58,11.336
		c34.92,21.616,82.612,34.936,135.204,34.936c52.596,0,100.284-13.32,135.212-34.936c0.376-3.736,0.58-7.512,0.58-11.336
		C391.784,371.2,385.124,350.096,373.512,331.932z"/>
	
		<rect x="245.73" y="297.995" transform="matrix(-0.707 0.7072 -0.7072 -0.707 655.0151 345.1711)" style="fill:#313133;" width="20.552" height="20.552"/>
</g>
<g>
	<polygon style="fill:#DDDDE1;" points="220.984,267.464 256,293.728 239.76,317.276 208.76,279.744 	"/>
	<polygon style="fill:#DDDDE1;" points="291.016,267.464 256,293.728 272.24,317.276 303.236,279.744 	"/>
</g>
<path style="fill:#322C2E;" d="M195.152,151.66v29.68c0,0,59.364-15.488,121.316,0v-29.68H195.152z"/>
<polygon style="fill:#525458;" points="271.408,72.012 146.752,120.456 245.972,193.12 377.988,132.568 "/>
<ellipse style="fill:#221F1F;" cx="259.68" cy="123.832" rx="14.196" ry="8.736"/>
<path style="fill:#BE1E2D;" d="M256.496,123.332c-0.912-0.624-2.16-0.384-2.772,0.54c-2.028,3.004-5.864,5.124-9.58,7.176
	c-1.528,0.848-3.02,1.672-4.348,2.532c-4.304,2.792-8.452,4.188-12.984,5.468c-0.528-0.196-1.124-0.188-1.648,0.108
	c-0.596,0.328-1.204,0.596-1.816,0.856c-0.976,0.264-1.956,0.532-2.988,0.828c-6.448,1.844-13.156,2.868-19.644,3.86l-2.164,0.332
	c-4.704,0.72-9.144,1.4-13.072,4.804c-5.12,4.432-7.632,10.4-10.06,16.164c-4.996,11.868-5.376,30.244-3.196,41.508
	c0.82,4.244,2.076,8.28,3.284,12.192c1.896,6.108,3.684,11.884,3.972,18.4c0.416,9.396-2.3,15.416-8.544,18.932
	c-0.964,0.544-1.304,1.76-0.76,2.724c0.368,0.652,1.048,1.02,1.744,1.02c0.336,0,0.672-0.084,0.98-0.256
	c7.6-4.284,11.06-11.676,10.58-22.596c-0.312-7.028-2.26-13.32-4.148-19.404c-1.18-3.804-2.4-7.74-3.176-11.764
	c-1.072-5.532-1.444-12.832-0.964-20.084c0.536,7.164,2.66,14.156,5.172,21.572c4.084,12.064,6.656,23.092,7.64,32.78l0.06,0.576
	c1.432,13.884-0.148,16.984-1.22,17.596c-0.96,0.548-1.292,1.768-0.744,2.728c0.368,0.648,1.044,1.008,1.736,1.008
	c0.34,0,0.68-0.084,0.992-0.264c4.508-2.58,4.208-11.848,3.212-21.48l-0.06-0.568c-1.012-9.984-3.648-21.308-7.828-33.656
	c-3.88-11.464-6.652-21.096-4.176-31.976c0.912-3.988,4.012-9.424,6.272-13.4l0.752-1.312c0.38-0.668,0.796-1.212,1.204-1.788
	c-2.784,4.736-4.544,10.972-5.268,18.9c-1,10.908,0.58,19.564,5.276,28.948c5.18,10.336,8.844,18.584,8.816,30.62
	c-0.008,2.66,0.22,5.212,0.436,7.676c0.208,2.332,0.404,4.536,0.42,6.852c0.008,1.1,0.904,1.984,2,1.984c0.004,0,0.012,0,0.016,0
	c1.104-0.008,1.992-0.916,1.984-2.016c-0.024-2.476-0.236-4.864-0.436-7.172c-0.22-2.488-0.424-4.836-0.42-7.316
	c0.028-12.896-3.988-21.936-9.24-32.416c-4.344-8.672-5.8-16.688-4.872-26.792c1.084-11.904,4.676-19.82,10.672-23.54
	c2.028-1.264,4.532-2.608,7.064-3.844c0.336-0.072,0.652-0.14,0.992-0.212c6.68-1.384,14.176-2.96,19.8-6.572
	c5.844-1.588,10.944-3.028,16.528-6.644c1.252-0.812,2.664-1.588,4.108-2.392c3.932-2.172,8.392-4.64,10.952-8.44
	C257.656,125.192,257.416,123.948,256.496,123.332z"/>
<g>
</g>
<g>
</g>
<g>
</g>
<g>
</g>
<g>
</g>
<g>
</g>
<g>
</g>
<g>
</g>
<g>
</g>
<g>
</g>
<g>
</g>
<g>
</g>
<g>
</g>
<g>
</g>
<g>
</g>
</svg>
