<?xml version="1.0" encoding="iso-8859-1"?>
<!-- Generator: Adobe Illustrator 19.0.0, SVG Export Plug-In . SVG Version: 6.00 Build 0)  -->
<svg version="1.1" id="Layer_1" xmlns="http://www.w3.org/2000/svg" xmlns:xlink="http://www.w3.org/1999/xlink" x="0px" y="0px"
	 viewBox="0 0 480 480" style="enable-background:new 0 0 480 480;" xml:space="preserve">
<path style="fill:#F9ECDE;" d="M240,72c0-35.344-28.656-64-64-64H8v400h168c35.344,0,64,28.656,64,64c0-35.344,28.656-64,64-64h168
	V8H304C268.656,8,240,36.656,240,72z M128,240c-44.184,0-80-35.816-80-80s35.816-80,80-80s80,35.816,80,80
	c0,22.088-8.952,42.088-23.432,56.568C170.088,231.048,150.088,240,128,240z M312,376l-72-72l-32-32l16-16l16-16l64,64l32,32l8,8
	l-24,24L312,376z"/>
<g>
	<path style="fill:#66CEDB;" d="M176,408H8v64h232C240,436.656,211.344,408,176,408z"/>
	<path style="fill:#66CEDB;" d="M240,472h232v-64H304C268.656,408,240,436.656,240,472z"/>
</g>
<path style="fill:#F6BF58;" d="M128,80c-44.184,0-80,35.816-80,80s35.816,80,80,80c22.088,0,42.088-8.952,56.568-23.432
	C199.048,202.088,208,182.088,208,160C208,115.816,172.184,80,128,80z"/>
<polygon style="fill:#66CEDB;" points="336,336 304,304 240,240 224,256 208,272 240,304 312,376 320,368 344,344 "/>
<g>
	<path style="fill:#010133;" d="M472,0H304c-27.872,0-52.04,15.944-64,39.168C228.04,15.944,203.872,0,176,0H8C3.576,0,0,3.584,0,8
		v400v64c0,4.416,3.576,8,8,8h464c4.424,0,8-3.584,8-8v-64V8C480,3.584,476.424,0,472,0z M304,16h160v384H304
		c-22.592,0-42.792,10.464-56,26.792v-103.48l58.344,58.344c1.56,1.56,3.608,2.344,5.656,2.344s4.096-0.784,5.656-2.344l5.656-5.656
		H440v-16H339.312l10.344-10.344c1.56-1.56,2.344-3.608,2.344-5.656h88v-16H339.312l-16-16H440v-16H307.312L248,236.688V72
		C248,41.12,273.128,16,304,16z M240,251.312L332.688,344L312,364.688L219.312,272L240,251.312z M16,16h160c30.872,0,56,25.12,56,56
		v164.688l-8,8l-28.416-28.416C208.312,201,216,181.384,216,160c0-48.52-39.48-88-88-88s-88,39.48-88,88s39.48,88,88,88
		c21.384,0,41-7.688,56.272-20.416L212.688,256l-10.344,10.344c-3.128,3.128-3.128,8.184,0,11.312L232,307.312v119.48
		C218.792,410.464,198.592,400,176,400H16V16z M128,232c-39.704,0-72-32.304-72-72s32.296-72,72-72s72,32.304,72,72
		S167.704,232,128,232z M16,416h160c28.152,0,51.456,20.904,55.36,48H16V416z M248.64,464c3.904-27.096,27.208-48,55.36-48h160v48
		H248.64z"/>
	<rect x="88" y="120" style="fill:#010133;" width="80" height="16"/>
	<rect x="88" y="152" style="fill:#010133;" width="80" height="16"/>
	<rect x="88" y="184" style="fill:#010133;" width="80" height="16"/>
	<rect x="72" y="264" style="fill:#010133;" width="112" height="16"/>
	<rect x="40" y="296" style="fill:#010133;" width="144" height="16"/>
	<rect x="40" y="328" style="fill:#010133;" width="144" height="16"/>
	<rect x="40" y="360" style="fill:#010133;" width="144" height="16"/>
	<rect x="328" y="56" style="fill:#010133;" width="112" height="16"/>
	<rect x="296" y="88" style="fill:#010133;" width="144" height="16"/>
	<rect x="296" y="120" style="fill:#010133;" width="144" height="16"/>
	<rect x="296" y="152" style="fill:#010133;" width="144" height="16"/>
	<rect x="328" y="200" style="fill:#010133;" width="112" height="16"/>
	<rect x="296" y="232" style="fill:#010133;" width="144" height="16"/>
	<rect x="328" y="264" style="fill:#010133;" width="112" height="16"/>
	<rect x="40" y="40" style="fill:#010133;" width="16" height="16"/>
	<rect x="72" y="40" style="fill:#010133;" width="16" height="16"/>
	<rect x="104" y="40" style="fill:#010133;" width="16" height="16"/>
</g>
<g>
</g>
<g>
</g>
<g>
</g>
<g>
</g>
<g>
</g>
<g>
</g>
<g>
</g>
<g>
</g>
<g>
</g>
<g>
</g>
<g>
</g>
<g>
</g>
<g>
</g>
<g>
</g>
<g>
</g>
</svg>
