<?xml version="1.0" encoding="iso-8859-1"?>
<!-- Generator: Adobe Illustrator 19.0.0, SVG Export Plug-In . SVG Version: 6.00 Build 0)  -->
<svg version="1.1" id="Layer_1" xmlns="http://www.w3.org/2000/svg" xmlns:xlink="http://www.w3.org/1999/xlink" x="0px" y="0px"
	 viewBox="0 0 512 512" style="enable-background:new 0 0 512 512;" xml:space="preserve">
<circle style="fill:#FFC400;" cx="256" cy="256" r="256"/>
<path style="fill:#F0F0F0;" d="M404.945,265.309c0-27.392-16.919-50.795-40.858-60.43c-18.972-46.392-49.613-65.243-87.142-65.243
	c-35.277,0-65.848,20.103-80.84,49.515c-23.855-10.161-50.744,6.707-51.74,32.838c-21.718,7.652-37.311,28.29-37.311,52.629
	c0,30.846,25.004,55.855,55.855,55.855h186.182C349.091,330.473,404.945,320.112,404.945,265.309z"/>
<path style="fill:#FFFFFF;" d="M276.945,139.636c-35.277,0-65.848,20.103-80.84,49.515c-4.482-1.908-9.407-2.97-14.578-2.97
	c-20.08,0-36.403,15.909-37.162,35.803c-21.718,7.657-37.311,28.295-37.311,52.634c0,29.296,22.561,53.276,51.251,55.622
	l172.665-172.665C315.462,145.203,297.221,139.636,276.945,139.636z"/>
<path style="fill:#EF5350;" d="M209.925,240.365c0.95,2.29,3.188,3.784,5.669,3.784h15.867v42.952c0,3.389,2.746,6.135,6.135,6.135
	h36.808c3.393,0,6.135-2.751,6.135-6.135V244.15h15.867c2.481,0,4.72-1.494,5.669-3.784c0.95-2.295,0.428-4.934-1.327-6.689
	l-40.29-36.887c-2.402-2.397-6.284-2.397-8.676,0l-40.532,36.887C209.496,235.432,208.97,238.066,209.925,240.365z"/>
<g>
</g>
<g>
</g>
<g>
</g>
<g>
</g>
<g>
</g>
<g>
</g>
<g>
</g>
<g>
</g>
<g>
</g>
<g>
</g>
<g>
</g>
<g>
</g>
<g>
</g>
<g>
</g>
<g>
</g>
</svg>
